<mxfile host="app.diagrams.net" modified="2024-07-09T22:05:37.260Z" agent="Mozilla/5.0 (Windows NT 10.0; Win64; x64) AppleWebKit/537.36 (KHTML, like Gecko) Chrome/126.0.0.0 Safari/537.36" version="24.6.4" etag="rv23X6OX6BTrOPqju2Be" type="github">
  <diagram name="PÃ¡gina-1" id="JA_yhx7py7BJ_DTtyicU">
    <mxGraphModel>
      <root>
        <mxCell id="0" />
        <mxCell id="1" parent="0" />
      </root>
    </mxGraphModel>
  </diagram>
</mxfile>
